<?xml version="1.0" standalone="no"?>
<!DOCTYPE svg PUBLIC "-//W3C//DTD SVG 20010904//EN"
 "http://www.w3.org/TR/2001/REC-SVG-20010904/DTD/svg10.dtd">
<svg version="1.0" xmlns="http://www.w3.org/2000/svg"
 width="56.000000pt" height="56.000000pt" viewBox="0 0 56.000000 56.000000"
 preserveAspectRatio="xMidYMid meet">

<g transform="translate(0.000000,56.000000) scale(0.100000,-0.100000)"
fill="#183B56" stroke="none">
<path d="M213 551 c-49 -13 -120 -58 -146 -94 -49 -65 -61 -99 -61 -177 -1
-116 49 -196 156 -249 111 -56 224 -36 314 53 135 136 103 348 -66 440 -55 30
-139 42 -197 27z m183 -39 c92 -47 150 -148 142 -249 -10 -137 -104 -231 -241
-241 -101 -8 -201 49 -250 142 -29 54 -30 174 -3 226 35 67 95 118 166 141 41
14 142 3 186 -19z"/>
<path d="M241 324 l-33 -36 33 -34 c18 -19 37 -34 41 -34 14 0 8 28 -7 34 -30
11 -14 26 30 26 25 0 45 5 45 10 0 6 -21 10 -47 10 -44 0 -45 1 -30 18 18 19
23 42 10 42 -5 0 -23 -16 -42 -36z"/>
</g>
</svg>
