<?xml version="1.0" standalone="no"?>
<!DOCTYPE svg PUBLIC "-//W3C//DTD SVG 20010904//EN"
 "http://www.w3.org/TR/2001/REC-SVG-20010904/DTD/svg10.dtd">
<svg version="1.0" xmlns="http://www.w3.org/2000/svg"
 width="56.000000pt" height="56.000000pt" viewBox="0 0 56.000000 56.000000"
 preserveAspectRatio="xMidYMid meet">

<g transform="translate(0.000000,56.000000) scale(0.100000,-0.100000)"
fill="#000000" stroke="none">
<path d="M213 551 c-49 -13 -120 -58 -146 -94 -49 -65 -61 -99 -61 -177 -1
-116 49 -196 156 -249 111 -56 224 -36 314 53 135 136 103 348 -66 440 -55 30
-139 42 -197 27z m183 -39 c92 -47 150 -148 142 -249 -10 -137 -104 -231 -241
-241 -101 -8 -201 49 -250 142 -29 54 -30 174 -3 226 35 67 95 118 166 141 41
14 142 3 186 -19z"/>
<path d="M256 314 c-31 -38 -28 -58 4 -29 20 18 20 18 20 -28 0 -26 5 -47 10
-47 6 0 10 20 10 45 0 44 12 60 24 30 6 -15 36 -21 36 -7 0 9 -63 72 -70 71
-3 0 -18 -16 -34 -35z"/>
</g>
</svg>
