<svg width="38" height="38" viewBox="0 0 38 38" fill="none" xmlns="http://www.w3.org/2000/svg">
<g opacity="0.2">
<rect x="0.914551" y="0.914551" width="36" height="36" rx="12" stroke="#1565D8" stroke-width="0.75"/>
</g>
<path fill-rule="evenodd" clip-rule="evenodd" d="M14.4481 16.6582C15.552 15.0894 16.2411 13.2893 16.5176 11.2513C16.5439 11.0572 16.6813 10.8958 16.8699 10.8374C18.771 10.2491 19.8519 11.184 19.834 13.3158C19.8305 13.7296 19.8114 14.0974 19.7708 14.6599C19.68 15.9164 19.6872 16.2593 19.8279 16.4901C19.9631 16.7119 20.4021 16.7876 21.4404 16.5905C21.7681 16.5283 22.0967 16.4577 22.4608 16.3731C22.6215 16.3357 23.7789 16.0533 24.0748 15.9894C24.6392 15.8675 25.0442 15.8159 25.4002 15.8378C26.3649 15.8969 26.8768 16.518 26.9653 17.708C27.1211 19.8037 26.6397 24.013 26.1595 25.5635C25.6689 27.1479 24.8131 27.7459 22.759 27.782C21.4383 27.8053 19.407 27.8053 16.6558 27.782C15.9534 27.7657 15.317 27.6297 14.7508 27.3754C14.9097 27.0463 14.9987 26.6777 14.9987 26.2886V18.2246C14.9987 17.6326 14.7928 17.0883 14.4481 16.6582Z" fill="#1565D8"/>
<path opacity="0.3" fill-rule="evenodd" clip-rule="evenodd" d="M11.4398 16.7126C10.5974 16.7126 9.91455 17.3896 9.91455 18.2246V26.2886C9.91455 27.1237 10.5974 27.8006 11.4398 27.8006H12.4567C13.299 27.8006 13.9819 27.1237 13.9819 26.2886V18.2246C13.9819 17.3896 13.299 16.7126 12.4567 16.7126H11.4398Z" fill="#1565D8"/>
</svg>
